<svg width="160" height="161" viewBox="0 0 160 161" fill="none" xmlns="http://www.w3.org/2000/svg">
<g clip-path="url(#clip0_2101_790)">
<path d="M80 0.0302734C35.8176 0.0302734 0 35.8479 0 80.0303C0 124.213 35.8176 160.03 80 160.03C124.182 160.03 160 124.213 160 80.0303C160 35.8479 124.182 0.0302734 80 0.0302734ZM80 136.03C68.9242 136.03 58.0972 132.746 48.8881 126.593C39.6789 120.439 32.5013 111.693 28.2627 101.461C24.0242 91.2279 22.9153 79.9681 25.076 69.1052C27.2368 58.2423 32.5703 48.264 40.402 40.4323C48.2338 32.6006 58.212 27.2671 69.0749 25.1063C79.9379 22.9455 91.1976 24.0545 101.43 28.293C111.663 32.5315 120.409 39.7092 126.562 48.9183C132.716 58.1275 136 68.9545 136 80.0303C136 94.8824 130.1 109.126 119.598 119.628C109.096 130.13 94.8521 136.03 80 136.03Z" fill="#E9EAF8"/>
</g>
<defs>
<clipPath id="clip0_2101_790">
<rect width="160" height="160" fill="white" transform="translate(0 0.0302734)"/>
</clipPath>
</defs>
</svg>
